<?xml version="1.0" encoding="utf-8"?>
<!-- Generated by IcoMoon.io -->
<!DOCTYPE svg PUBLIC "-//W3C//DTD SVG 1.1//EN" "http://www.w3.org/Graphics/SVG/1.1/DTD/svg11.dtd">
<svg version="1.1" xmlns="http://www.w3.org/2000/svg" xmlns:xlink="http://www.w3.org/1999/xlink" width="32" height="32" viewBox="0 0 32 32">
<path d="M15.988 6.403c-5.847 0-10.406 3.659-15.997 9.594 4.816 5.075 8.859 9.6 15.997 9.6s12.384-5.731 15.997-9.494c-3.7-4.406-8.947-9.7-15.997-9.7zM15.988 22.397c-3.528 0-6.397-2.869-6.397-6.397s2.869-6.397 6.397-6.397c3.528 0 6.4 2.869 6.4 6.397-0.003 3.528-2.872 6.397-6.4 6.397zM16 13.253c-1.516 0-2.747 1.234-2.747 2.747 0 1.516 1.234 2.747 2.747 2.747 1.516 0 2.747-1.234 2.747-2.747 0-1.516-1.231-2.747-2.747-2.747z" fill="#000000"></path>
</svg>
