<?xml version="1.0" encoding="utf-8"?>
<!-- Generator: Adobe Illustrator 18.0.0, SVG Export Plug-In . SVG Version: 6.00 Build 0)  -->
<!DOCTYPE svg PUBLIC "-//W3C//DTD SVG 1.1//EN" "http://www.w3.org/Graphics/SVG/1.1/DTD/svg11.dtd">
<svg version="1.1" id="Layer_1" xmlns="http://www.w3.org/2000/svg" xmlns:xlink="http://www.w3.org/1999/xlink" x="0px" y="0px"
	 width="32px" height="32px" viewBox="0 0 32 32" enable-background="new 0 0 32 32" xml:space="preserve">
<path fill="#00BC66" d="M17.5,2c0,0-6.3,0-8.4,0C5.3,2,1.8,4.8,1.8,8.1c0,3.4,2.6,6.1,6.4,6.1c0.3,0,0.5,0,0.8,0
	c-0.2,0.5-0.4,1-0.4,1.6c0,0.9,0.5,1.7,1.1,2.3c-0.5,0-0.9,0-1.5,0c-4.6,0-8.2,3-8.2,6c0,3,3.9,4.9,8.6,4.9c5.3,0,8.2-3,8.2-6
	c0-2.4-0.7-3.9-2.9-5.4c-0.8-0.5-2.2-1.8-2.2-2.6c0-0.9,0.3-1.3,1.6-2.4c1.4-1.1,2.4-2.6,2.4-4.4c0-2.1-0.9-4.2-2.7-4.8h2.7L17.5,2
	L17.5,2z M14.5,22.5c0.1,0.3,0.1,0.6,0.1,0.9c0,2.4-1.6,4.4-6.1,4.4c-3.2,0-5.5-2-5.5-4.5c0-2.4,2.9-4.4,6.1-4.4
	c0.8,0,1.4,0.1,2.1,0.3C12.9,20.4,14.2,21.1,14.5,22.5L14.5,22.5z M9.4,13.4C7.2,13.3,5.2,11,4.8,8.1s1.1-5,3.2-4.9
	c2.2,0.1,4.2,2.3,4.6,5.2S11.6,13.4,9.4,13.4z M26,8V2h-2v6h-6v2h6v6h2v-6h6V8H26z"/>
</svg>
