<?xml version="1.0" encoding="utf-8"?>
<!-- Generator: Adobe Illustrator 18.0.0, SVG Export Plug-In . SVG Version: 6.00 Build 0)  -->
<!DOCTYPE svg PUBLIC "-//W3C//DTD SVG 1.1//EN" "http://www.w3.org/Graphics/SVG/1.1/DTD/svg11.dtd">
<svg version="1.1" id="Layer_1" xmlns="http://www.w3.org/2000/svg" xmlns:xlink="http://www.w3.org/1999/xlink" x="0px" y="0px"
	 width="220.5px" height="67px" viewBox="0 0 220.5 67" enable-background="new 0 0 220.5 67" xml:space="preserve">
<path fill="#00BC66" d="M12.5,27.9C5.6,27.9,0,33.7,0,40.9c0,11.8,13.9,17,10,26.1c6.4-4.4,15-17,15-26.1
	C25,33.7,19.4,27.9,12.5,27.9z M12.5,44c-2.8,0-5-2.3-5-5.1s2.2-5.1,5-5.1s5,2.3,5,5.1S15.3,44,12.5,44z M4.2,28.8
	c0,0,2.8-2.5,8.3-2.5c5.6,0,8.3,2.5,8.3,2.5L19.2,0H5.8L4.2,28.8z"/>
<path fill="#797A7A" d="M44.1,17.5c-0.7-1.3-1.8-1.9-3.2-2c-0.8,0-1.5,0.3-2.1,0.8c-0.6,0.5-0.8,1.1-0.8,1.9c0,0.5,0.3,1,0.8,1.4
	s1.3,0.7,2.4,0.9c2.6,0.5,4.5,1.3,5.7,2.6c1.2,1.3,1.8,2.8,1.8,4.5c0,1.9-0.7,3.5-2.1,5c-1.4,1.4-3.2,2.2-5.3,2.2
	c-3.3,0-5.8-1.7-7.4-5.1L37,28c1,2.1,2.4,3.2,4.2,3.2c1,0,1.9-0.3,2.7-1.1c0.8-0.7,1.1-1.6,1.1-2.6c0-0.7-0.3-1.3-0.9-2
	c-0.6-0.7-1.7-1.1-3.2-1.4c-2.1-0.3-3.7-0.9-4.8-1.9s-1.7-2.1-1.7-3.5c0-1.6,0.5-3.1,1.7-4.4c1.2-1.4,2.7-2,4.6-2
	c2.7,0.1,4.7,1.3,6,3.8L44.1,17.5z M65.8,34.3h-3.1l-8.3-14.8v14.8H51V12.6h3.4l7.9,13.9V12.6h3.4L65.8,34.3L65.8,34.3z M86.2,34.3
	h-3.6l-2.1-6.1h-6.8l-2.1,6.1h-3.7l7.5-21.8h3.4L86.2,34.3z M79.1,24.7L77,18.6l-2.2,6.1H79.1z M102.7,34.3H87.9v-3.1L98,16h-9.3
	v-3.4h14v3.2l-10.3,15h10.3C102.7,30.8,102.7,34.3,102.7,34.3z M119.8,34.3H105v-3.1L115,16h-9.3v-3.4h14v3.2l-10.3,15.1h10.3v3.4
	H119.8z M140.4,12.6l-7.5,12.3v9.5h-3.4v-9.5l-7.6-12.3h4.1l5.2,8.4l5.3-8.4H140.4z M168,34.3h-3.4V21.7l-5,12.6l-5-12.6v12.6H151
	V12.6h3.4l5,12.2l5-12.2h3.4v21.7H168z M188.5,34.3h-3.6l-2.1-6.1H176l-2.1,6.1h-3.7l7.5-21.8h3.4L188.5,34.3z M181.5,24.7l-2.1-6.1
	l-2.2,6.1H181.5z M197.8,24.9h-4.1v9.5h-3.4V12.6h7.2c1.6,0,2.9,0.2,3.9,0.7s1.8,1.2,2.4,2.2c0.6,1,0.9,2.1,0.9,3.2
	s-0.2,2.2-0.7,3.1s-1.3,1.7-2.3,2.3C200.5,24.6,199.3,24.9,197.8,24.9z M201.1,18.7c0-0.8-0.3-1.5-0.8-1.9c-0.5-0.5-1.1-0.7-1.7-0.7
	h-5v5.4h5.2c0.7,0,1.2-0.2,1.7-0.7S201.1,19.6,201.1,18.7z M215.8,17.5c-0.7-1.3-1.8-1.9-3.2-2c-0.8,0-1.5,0.3-2.1,0.8
	c-0.6,0.5-0.8,1.1-0.8,1.9c0,0.5,0.3,1,0.8,1.4s1.3,0.7,2.4,0.9c2.6,0.5,4.5,1.3,5.7,2.6c1.2,1.3,1.8,2.8,1.8,4.5
	c0,1.9-0.7,3.5-2.1,5c-1.4,1.4-3.2,2.2-5.3,2.2c-3.3,0-5.8-1.7-7.4-5.1l3.3-1.7c1,2.1,2.4,3.2,4.2,3.2c1,0,1.9-0.3,2.7-1.1
	c0.8-0.7,1.1-1.6,1.1-2.6c0-0.7-0.3-1.3-0.9-2c-0.6-0.7-1.7-1.1-3.2-1.4c-2.1-0.3-3.7-0.9-4.8-1.9s-1.7-2.1-1.7-3.5
	c0-1.6,0.5-3.1,1.7-4.4c1.2-1.4,2.7-2,4.6-2c2.7,0.1,4.7,1.3,6,3.8L215.8,17.5z"/>
<path fill="#00994C" d="M35.3,42.6h6.2v0.7h-5.4v4.5h4.6v0.7h-4.6V54h-0.8V42.6z M43.1,45.7h0.7l0.1,1.5H44c0.6-1,1.4-1.8,2.4-1.8
	c0.3,0,0.6,0,0.8,0.2L47,46.3c-0.3-0.1-0.4-0.1-0.8-0.1c-0.7,0-1.6,0.6-2.3,2.1V54h-0.8V45.7z M51.4,45.5c2,0,3.2,1.4,3.2,3.9
	c0,0.2,0,0.4,0,0.6h-6c0,2.1,1.3,3.6,3.1,3.6c0.9,0,1.6-0.3,2.2-0.7l0.3,0.6c-0.7,0.4-1.4,0.8-2.6,0.8c-2.1,0-3.9-1.6-3.9-4.4
	C47.7,47.1,49.5,45.5,51.4,45.5z M53.8,49.3c0-2.1-1-3.2-2.4-3.2s-2.7,1.2-2.9,3.2H53.8z M59.8,45.5c2,0,3.2,1.4,3.2,3.9
	c0,0.2,0,0.4,0,0.6h-6c0,2.1,1.3,3.6,3.1,3.6c0.9,0,1.6-0.3,2.2-0.7l0.3,0.6c-0.7,0.4-1.4,0.8-2.6,0.8c-2.1,0-3.9-1.6-3.9-4.4
	C56.1,47.1,57.9,45.5,59.8,45.5z M62.2,49.3c0-2.1-1-3.2-2.4-3.2s-2.7,1.2-2.9,3.2H62.2z M68.1,52.5c0.7,0.6,1.5,1.1,2.7,1.1
	c1.3,0,2-0.8,2-1.7c0-1-1.1-1.5-2-1.8c-1.3-0.5-2.7-1-2.7-2.4c0-1.2,1-2.2,2.7-2.2c0.9,0,1.8,0.4,2.4,0.9l-0.4,0.5
	c-0.6-0.4-1.1-0.7-2-0.7c-1.3,0-1.9,0.7-1.9,1.5c0,0.9,1,1.3,2,1.7c1.3,0.5,2.7,0.9,2.7,2.6c0,1.3-1,2.3-2.8,2.3
	c-1.2,0-2.3-0.5-3.1-1.1L68.1,52.5z M75.9,46.3h-1.3v-0.6l1.3-0.1l0.1-2.4h0.7v2.4h2.4v0.7h-2.4v5.4c0,1.1,0.3,1.8,1.4,1.8
	c0.3,0,0.7-0.1,1-0.3l0.2,0.6c-0.5,0.2-1,0.3-1.4,0.3c-1.6,0-2.1-1-2.1-2.5v-5.3H75.9z M80.8,57.1c1,0,1.7-0.9,2.1-2.2l0.2-0.7
	l-3.4-8.5h0.8l2,5.2c0.3,0.7,0.6,1.6,0.9,2.3h0.1c0.3-0.7,0.5-1.6,0.8-2.3l1.8-5.2h0.8L83.6,55c-0.5,1.4-1.3,2.8-2.8,2.8
	c-0.3,0-0.6-0.1-0.9-0.2l0.2-0.7C80.3,57,80.5,57.1,80.8,57.1z M88.7,41.5h0.8V53c0,0.4,0.2,0.5,0.4,0.5c0.1,0,0.1,0,0.3,0l0.1,0.6
	c-0.2,0.1-0.3,0.1-0.6,0.1c-0.7,0-1-0.4-1-1.3C88.7,52.9,88.7,41.5,88.7,41.5z M95.7,45.5c2,0,3.2,1.4,3.2,3.9c0,0.2,0,0.4,0,0.6h-6
	c0,2.1,1.3,3.6,3.1,3.6c0.9,0,1.6-0.3,2.2-0.7l0.3,0.6c-0.7,0.4-1.4,0.8-2.6,0.8c-2.1,0-3.9-1.6-3.9-4.4
	C92.1,47.1,93.9,45.5,95.7,45.5z M98.2,49.3c0-2.1-1-3.2-2.4-3.2s-2.7,1.2-2.9,3.2H98.2z M100.6,52.5c0.7,0.6,1.5,1.1,2.7,1.1
	c1.3,0,2-0.8,2-1.7c0-1-1.1-1.5-2-1.8c-1.3-0.5-2.7-1-2.7-2.4c0-1.2,1-2.2,2.7-2.2c0.9,0,1.8,0.4,2.4,0.9l-0.4,0.5
	c-0.6-0.4-1.1-0.7-2-0.7c-1.3,0-1.9,0.7-1.9,1.5c0,0.9,1,1.3,2,1.7c1.3,0.5,2.7,0.9,2.7,2.6c0,1.3-1,2.3-2.8,2.3
	c-1.2,0-2.3-0.5-3.1-1.1L100.6,52.5z M114.9,42.2c-0.3-0.2-0.7-0.2-1-0.2c-0.9,0-1.3,0.7-1.3,1.9v1.8h1.9v0.7h-1.9V54h-0.8v-7.7
	h-1.1v-0.6l1.1-0.1v-1.9c0-1.6,0.7-2.5,2.1-2.5c0.4,0,0.8,0.1,1.2,0.3L114.9,42.2z M119.1,45.5c2,0,3.8,1.6,3.8,4.4
	c0,2.8-1.7,4.4-3.8,4.4c-2,0-3.7-1.6-3.7-4.4S117.1,45.5,119.1,45.5z M119.1,53.5c1.7,0,3-1.5,3-3.7s-1.3-3.7-3-3.7
	s-2.9,1.5-2.9,3.7S117.4,53.5,119.1,53.5z M125.3,45.7h0.7l0.1,1.5h0.1c0.6-1,1.4-1.8,2.4-1.8c0.3,0,0.6,0,0.8,0.2l-0.2,0.7
	c-0.3-0.1-0.4-0.1-0.8-0.1c-0.7,0-1.6,0.6-2.3,2.1V54h-0.8L125.3,45.7L125.3,45.7z M138.6,42.3c1.5,0,2.5,0.7,3.1,1.4l-0.5,0.5
	c-0.6-0.6-1.4-1.2-2.6-1.2c-2.6,0-4.2,2-4.2,5.2s1.5,5.2,4.2,5.2c1,0,2-0.3,2.6-0.9V49h-2.7v-0.7h3.5v4.5c-0.7,0.8-1.9,1.3-3.4,1.3
	c-2.9,0-4.9-2.3-4.9-6C133.6,44.6,135.6,42.3,138.6,42.3z M147.3,45.5c2,0,3.8,1.6,3.8,4.4c0,2.8-1.7,4.4-3.8,4.4
	c-2,0-3.7-1.6-3.7-4.4C143.5,47.1,145.3,45.5,147.3,45.5z M147.3,53.5c1.7,0,3-1.5,3-3.7s-1.3-3.7-3-3.7s-2.9,1.5-2.9,3.7
	C144.3,52,145.6,53.5,147.3,53.5z M156.1,45.5c2,0,3.8,1.6,3.8,4.4c0,2.8-1.7,4.4-3.8,4.4c-2,0-3.7-1.6-3.7-4.4
	C152.4,47.1,154.1,45.5,156.1,45.5z M156.1,53.5c1.7,0,3-1.5,3-3.7s-1.3-3.7-3-3.7s-2.9,1.5-2.9,3.7C153.2,52,154.4,53.5,156.1,53.5
	z M162.5,53.7L162.5,53.7c-0.4-0.3-0.7-0.8-0.7-1.4c0-0.7,0.5-1.3,0.9-1.5v-0.1c-0.5-0.5-1-1.3-1-2.3c0-1.7,1.3-2.9,2.9-2.9
	c0.5,0,0.8,0.1,1.1,0.2h2.8v0.6h-1.9c0.5,0.5,0.9,1.2,0.9,2.1c0,1.7-1.3,2.9-2.9,2.9c-0.5,0-1-0.1-1.4-0.3c-0.4,0.3-0.7,0.6-0.7,1.2
	c0,0.6,0.3,1.1,1.6,1.1h1.8c1.9,0,2.7,0.6,2.7,1.9c0,1.4-1.5,2.8-3.9,2.8c-2.1,0-3.4-0.9-3.4-2.3C161.2,55,161.7,54.2,162.5,53.7z
	 M164.7,57.4c1.9,0,3.1-1.1,3.1-2.1c0-0.9-0.7-1.3-1.9-1.3h-1.8c-0.2,0-0.6,0-1-0.1c-0.8,0.5-1.1,1.2-1.1,1.8
	C162,56.7,163,57.4,164.7,57.4z M166.7,48.4c0-1.4-1-2.3-2.2-2.3s-2.2,0.9-2.2,2.3c0,1.4,1,2.3,2.2,2.3S166.7,49.8,166.7,48.4z
	 M170.4,41.5h0.8V53c0,0.4,0.2,0.5,0.4,0.5c0.1,0,0.1,0,0.3,0l0.1,0.6c-0.2,0.1-0.3,0.1-0.6,0.1c-0.7,0-1-0.4-1-1.3V41.5z
	 M177.4,45.5c2,0,3.2,1.4,3.2,3.9c0,0.2,0,0.4,0,0.6h-6c0,2.1,1.3,3.6,3.1,3.6c0.9,0,1.6-0.3,2.2-0.7l0.3,0.6
	c-0.7,0.4-1.4,0.8-2.6,0.8c-2.1,0-3.9-1.6-3.9-4.4C173.8,47.1,175.6,45.5,177.4,45.5z M179.9,49.3c0-2.1-1-3.2-2.4-3.2
	s-2.7,1.2-2.9,3.2H179.9z M186.4,42.6h1.1l2.4,6.7l0.9,2.5h0.1l0.9-2.5l2.4-6.7h1.1V54h-0.8v-7.5c0-0.9,0.1-2.1,0.1-3.1h-0.1
	l-0.9,2.5l-2.5,6.8h-0.7l-2.5-6.8l-0.9-2.5l0,0c0,1,0.1,2.2,0.1,3.1V54h-0.7L186.4,42.6L186.4,42.6z M202.5,48.8
	c0-1.3-0.3-2.6-2-2.6c-1.1,0-2.1,0.6-2.7,1l-0.3-0.6c0.6-0.4,1.7-1.1,3.1-1.1c2,0,2.6,1.4,2.6,3.2V54h-0.6l-0.1-1.1l0,0
	c-0.9,0.7-1.9,1.3-3,1.3c-1.3,0-2.4-0.7-2.4-2.3C197.1,50.1,198.8,49.2,202.5,48.8z M199.7,53.5c1,0,1.8-0.5,2.8-1.4v-2.8
	c-3.4,0.4-4.6,1.2-4.6,2.5S198.7,53.5,199.7,53.5z M206.6,54.7v3h-0.8v-12h0.7l0.1,1h0.1c0.8-0.6,1.8-1.3,2.8-1.3
	c2.2,0,3.3,1.7,3.3,4.3c0,2.8-1.7,4.5-3.7,4.5c-0.8,0-1.6-0.4-2.5-1L206.6,54.7L206.6,54.7z M209.1,53.5c1.7,0,2.9-1.6,2.9-3.8
	c0-2-0.7-3.6-2.6-3.6c-0.8,0-1.7,0.5-2.7,1.4v4.9C207.5,53.2,208.4,53.5,209.1,53.5z M214.7,52.5c0.7,0.6,1.5,1.1,2.7,1.1
	c1.3,0,2-0.8,2-1.7c0-1-1.1-1.5-2-1.8c-1.3-0.5-2.7-1-2.7-2.4c0-1.2,1-2.2,2.7-2.2c0.9,0,1.8,0.4,2.4,0.9l-0.4,0.5
	c-0.6-0.4-1.1-0.7-2-0.7c-1.3,0-1.9,0.7-1.9,1.5c0,0.9,1,1.3,2,1.7c1.3,0.5,2.7,0.9,2.7,2.6c0,1.3-1,2.3-2.8,2.3
	c-1.2,0-2.3-0.5-3.1-1.1L214.7,52.5z"/>
</svg>
