<?xml version="1.0" encoding="utf-8"?>
<!-- Generator: Adobe Illustrator 18.0.0, SVG Export Plug-In . SVG Version: 6.00 Build 0)  -->
<!DOCTYPE svg PUBLIC "-//W3C//DTD SVG 1.1//EN" "http://www.w3.org/Graphics/SVG/1.1/DTD/svg11.dtd">
<svg version="1.1" id="Layer_1" xmlns="http://www.w3.org/2000/svg" xmlns:xlink="http://www.w3.org/1999/xlink" x="0px" y="0px"
	 width="32px" height="32px" viewBox="0 0 32 32" enable-background="new 0 0 32 32" xml:space="preserve">
<path fill="#00BC66" d="M2.5,8.3c0.8,0.4,11.6,6.2,12,6.4C15,14.9,15.5,15,16,15c0.5,0,1-0.1,1.5-0.3c0.4-0.2,11.2-6,12-6.4
	c0.8-0.4,1.5-1.7,0.1-1.7H2.5C1,6.5,1.8,7.8,2.5,8.3L2.5,8.3z M29.8,11.5c-0.9,0.5-11.8,6.2-12.3,6.4s-0.9,0.3-1.5,0.3
	c-0.5,0-0.9,0-1.4-0.3s-11.4-6-12.3-6.4c-0.6-0.3-0.6,0.1-0.6,0.4s0,11.7,0,11.7c0,0.7,0.9,1.5,1.6,1.5h25.6c0.7,0,1.6-0.9,1.6-1.5
	c0,0,0-11.4,0-11.7C30.4,11.5,30.4,11.1,29.8,11.5z"/>
</svg>
